<svg enable-background="new 0 0 512 512" viewBox="0 0 512 512" xmlns="http://www.w3.org/2000/svg"><g><path d="m512 240v-108.086l-130.78-131.914-324.89 120h-56.33v40h40v70.913c0 22.178 11.222 41.859 29.287 51.365 6.608 3.477 10.713 10.267 10.713 17.722 0 11.028-8.972 20-20 20s-20-8.972-20-20h-40c0 33.084 26.916 60 60 60s60-26.916 60-60c0-22.353-12.295-42.708-32.088-53.121-4.732-2.49-7.912-8.906-7.912-15.966v-70.913h236v40h-160v200h-156v112h512v-40h-76v-232zm-76-40v-40h36v40zm-40-127.158 48.85 47.158c-10.363 0-38.779 0-48.85 0zm-226.997 47.158 186.997-67.635v67.635zm106.997 352v-32h-40v32h-196v-32h156v-200h120v232zm80 0c0-13.311 0-292.478 0-312h40v312z"/><circle cx="256" cy="380" r="20"/><circle cx="256" cy="300" r="20"/></g></svg>