<svg enable-background="new 0 0 512 512" viewBox="0 0 512 512" xmlns="http://www.w3.org/2000/svg"><g><path d="m412 352h-58.128c25.978-25.43 42.128-60.862 42.128-100v-16h40v-60c0-70.406-52.245-128.831-120-138.565v-37.435h-120v37.435c-67.755 9.734-120 68.159-120 138.565v60h40v16c0 39.138 16.15 74.57 42.128 100h-58.128c-55.141 0-100 44.86-100 100v60h512v-60c0-55.14-44.859-100-100-100zm-296-176c0-48.293 34.41-88.698 80-97.989v77.989h40v-116h40v116h40v-77.989c45.59 9.291 80 49.696 80 97.989v20h-280zm40 76v-16h200v16c0 55.14-44.859 100-100 100s-100-44.86-100-100zm236 140v80h-272v-80zm-352 60c0-26.073 16.722-48.304 40-56.56v76.56h-40zm432 20h-40v-76.56c23.278 8.256 40 30.487 40 56.56z"/></g></svg>