<svg viewBox="0 -76 512 512" xmlns="http://www.w3.org/2000/svg"><path d="m111.21875 127.570312c0-27.726562-44.035156-106.957031-49.058594-115.898437l-6.550781-11.671875-6.554687 11.667969c-5.019532 8.945312-49.054688 88.175781-49.054688 115.902343 0 30.660157 24.945312 55.609376 55.609375 55.609376s55.609375-24.949219 55.609375-55.609376zm-55.609375 40.578126c-22.375 0-40.578125-18.203126-40.578125-40.578126 0-17.359374 25.195312-67.933593 40.578125-96.582031 15.382813 28.644531 40.578125 79.214844 40.578125 96.582031 0 22.375-18.203125 40.578126-40.578125 40.578126zm0 0"/><path d="m271.53125 127.570312c0-27.726562-44.035156-106.957031-49.058594-115.898437l-6.550781-11.671875-6.554687 11.667969c-5.019532 8.945312-49.054688 88.175781-49.054688 115.902343 0 30.660157 24.945312 55.609376 55.609375 55.609376s55.609375-24.949219 55.609375-55.609376zm-55.609375 40.578126c-22.375 0-40.578125-18.203126-40.578125-40.578126 0-17.359374 25.195312-67.933593 40.578125-96.582031 15.382813 28.644531 40.578125 79.21875 40.578125 96.582031 0 22.375-18.203125 40.578126-40.578125 40.578126zm0 0"/><path d="m431.84375 127.570312c0-27.726562-44.035156-106.957031-49.054688-115.898437l-6.554687-11.671875-6.550781 11.667969c-5.023438 8.945312-49.058594 88.175781-49.058594 115.902343 0 30.660157 24.945312 55.609376 55.609375 55.609376s55.609375-24.949219 55.609375-55.609376zm-55.609375 40.578126c-22.375 0-40.578125-18.203126-40.578125-40.578126 0-17.359374 25.199219-67.933593 40.578125-96.582031 15.382813 28.644531 40.578125 79.21875 40.578125 96.582031 0 22.375-18.203125 40.578126-40.578125 40.578126zm0 0"/><path d="m31.5625 128.570312h16.03125v15.03125h-16.03125zm0 0"/><path d="m191.875 128.570312h16.03125v15.03125h-16.03125zm0 0"/><path d="m352.1875 128.570312h16.03125v15.03125h-16.03125zm0 0"/><path d="m135.765625 176.34375-6.554687 11.671875c-5.019532 8.941406-49.054688 88.171875-49.054688 115.898437 0 30.664063 24.945312 55.609376 55.609375 55.609376s55.609375-24.945313 55.609375-55.609376c0-27.726562-44.035156-106.957031-49.058594-115.898437zm0 168.148438c-22.375 0-40.578125-18.203126-40.578125-40.578126 0-17.355468 25.195312-67.933593 40.578125-96.582031 15.382813 28.644531 40.578125 79.214844 40.578125 96.582031 0 22.375-18.203125 40.578126-40.578125 40.578126zm0 0"/><path d="m296.078125 176.34375-6.550781 11.671875c-5.023438 8.941406-49.058594 88.171875-49.058594 115.898437 0 30.664063 24.945312 55.609376 55.609375 55.609376s55.609375-24.945313 55.609375-55.609376c0-27.726562-44.035156-106.957031-49.054688-115.898437zm0 168.148438c-22.375 0-40.578125-18.203126-40.578125-40.578126 0-17.355468 25.195312-67.933593 40.578125-96.582031 15.382813 28.644531 40.578125 79.214844 40.578125 96.582031 0 22.375-18.203125 40.578126-40.578125 40.578126zm0 0"/><path d="m111.71875 304.914062h16.03125v15.03125h-16.03125zm0 0"/><path d="m272.03125 304.914062h16.03125v15.03125h-16.03125zm0 0"/></svg>